HIERARCHY
ROOT Hips
{
  OFFSET 54.7225 85.667 11.6347
  CHANNELS 6 Xposition Yposition Zposition Zrotation Xrotation Yrotation
  JOINT spine
  {
    OFFSET 0 6.3926 0.367606
    CHANNELS 3 Zrotation Xrotation Yrotation
    JOINT spine1
    {
      OFFSET 0 9.17611 0
      CHANNELS 3 Zrotation Xrotation Yrotation
      JOINT spine2
      {
        OFFSET 0 8.79238 0
        CHANNELS 3 Zrotation Xrotation Yrotation
        JOINT Neck
        {
          OFFSET 0 22.5737 1.07624
          CHANNELS 3 Zrotation Xrotation Yrotation
          JOINT Head
          {
            OFFSET 0 6.82011 0
            CHANNELS 3 Zrotation Xrotation Yrotation
            End Site
            {
              OFFSET 0 16.5085 -5.44427
            }
          }
        }
        JOINT RightShoulder
        {
          OFFSET -3.70221 9.49509 -0.515508
          CHANNELS 3 Zrotation Xrotation Yrotation
          JOINT RightArm
          {
            OFFSET 0 12.4537 0
            CHANNELS 3 Zrotation Xrotation Yrotation
            JOINT RightArmRoll
            {
              OFFSET 0 6.28686 0
              CHANNELS 3 Zrotation Xrotation Yrotation
              JOINT RightForeArm
              {
                OFFSET 0 18.3114 0
                CHANNELS 3 Zrotation Xrotation Yrotation
                JOINT RightForeArmRoll
                {
                  OFFSET 0 7.05482 0
                  CHANNELS 3 Zrotation Xrotation Yrotation
                  JOINT RightHand
                  {
                    OFFSET 0 14.1575 0
                    CHANNELS 3 Zrotation Xrotation Yrotation
                    End Site
                    {
                      OFFSET 0 0 0
                    }
                  }
                }
              }
            }
          }
        }
        JOINT LeftShoulder
        {
          OFFSET 3.70221 9.49509 -0.515508
          CHANNELS 3 Zrotation Xrotation Yrotation
          JOINT LeftArm
          {
            OFFSET 0 12.4537 0
            CHANNELS 3 Zrotation Xrotation Yrotation
            JOINT LeftArmRoll
            {
              OFFSET 0 6.28686 0
              CHANNELS 3 Zrotation Xrotation Yrotation
              JOINT LeftForeArm
              {
                OFFSET 0 18.3114 0
                CHANNELS 3 Zrotation Xrotation Yrotation
                JOINT LeftForeArmRoll
                {
                  OFFSET 0 7.05482 0
                  CHANNELS 3 Zrotation Xrotation Yrotation
                  JOINT LeftHand
                  {
                    OFFSET 0 14.1575 0
                    CHANNELS 3 Zrotation Xrotation Yrotation
                    End Site
                    {
                      OFFSET 0 0 0
                    }
                  }
                }
              }
            }
          }
        }
      }
    }
  }
  JOINT RightUpLeg
  {
    OFFSET -5.66615 -1.03903 -0.87161
    CHANNELS 3 Zrotation Xrotation Yrotation
    JOINT RightUpLegRoll
    {
      OFFSET 0 16.6005 0
      CHANNELS 3 Zrotation Xrotation Yrotation
      JOINT RightLeg
      {
        OFFSET 0 -20.5572 0
        CHANNELS 3 Zrotation Xrotation Yrotation
        JOINT RightLegRoll
        {
          OFFSET 0 20.6244 0
          CHANNELS 3 Zrotation Xrotation Yrotation
          JOINT RightFoot
          {
            OFFSET 0 17.1664 0
            CHANNELS 3 Zrotation Xrotation Yrotation
            JOINT RightToeBase
            {
              OFFSET 0 14.3502 0
              CHANNELS 3 Zrotation Xrotation Yrotation
              End Site
              {
                OFFSET 0.00608252 6.94971 -0.80106
              }
            }
          }
        }
      }
    }
  }
  JOINT LeftUpLeg
  {
    OFFSET 5.66615 -1.03903 -0.87161
    CHANNELS 3 Zrotation Xrotation Yrotation
    JOINT LeftUpLegRoll
    {
      OFFSET 0 16.6006 0
      CHANNELS 3 Zrotation Xrotation Yrotation
      JOINT LeftLeg
      {
        OFFSET 0 20.5571 0
        CHANNELS 3 Zrotation Xrotation Yrotation
        JOINT LeftLegRoll
        {
          OFFSET 0 20.8151 0
          CHANNELS 3 Zrotation Xrotation Yrotation
          JOINT LeftFoot
          {
            OFFSET 0 16.9757 0
            CHANNELS 3 Zrotation Xrotation Yrotation
            JOINT LeftToeBase
            {
              OFFSET 0 14.3502 0
              CHANNELS 3 Zrotation Xrotation Yrotation
              End Site
              {
                OFFSET -0.0272592 6.9497 -0.801061
              }
            }
          }
        }
      }
    }
  }
}
MOTION
Frames: 12
Frame Time: 0.00208333
54.1727 85.7566 11.881 -2.59884 -4.54917 -1.19655 0.0326273 -0.904353 -0.108367 0.0808033 2.19395 -0.207593 0.0833792 3.83901 -0.209098 6.28189 5.64543 1.4958 -4.72414 5.6779 2.97459 61.8219 -4.85676 -3.18815 109.285 16.8125 3.58852 7.43564e-007 -1.12047e-007 -2.83057e-006 13.8018 5.68381 -1.09068 9.49884e-007 -3.55004e-007 -3 8.02889 -4.95145 0.697709 -52.5692 -2.12555 0.645043 -114.317 15.5254 1.01834 -6.48933e-008 5.62099e-006 3.84571e-006 -10.1594 3.25676 0.814164 2.99717e-006 5.31099e-006 3 -8.02894 -4.95146 -0.697697 177.444 -3.6458 -0.315537 180 7.01524e-015 178.829 177.829 5.04188 179.71 -7.93365e-007 3.1421e-006 0.0358964 -18.6492 67.8509 19.4112 8.13649 25.2327 -3.48773 -171.659 -2.50528 -1.70487 4.54188e-006 -4.6773e-006 -1.06647 -1.23933 -8.03237 0.534443 3.05901e-007 -6.6868e-007 -0.0192297 17.694 69.0636 -20.383 -8.13656 25.2337 3.48637 
54.1736 85.7508 11.8808 -2.59857 -4.5473 -1.19616 0.032545 -0.905919 -0.108648 0.0797144 2.19069 -0.209079 0.0823118 3.83576 -0.210566 6.28473 5.6539 1.49125 -4.72219 5.67948 2.97134 61.8262 -4.85572 -3.1878 109.277 16.8104 3.59027 7.43564e-007 -1.12047e-007 -2.83057e-006 13.802 5.69155 -1.09239 9.49884e-007 -3.55004e-007 -3 8.02889 -4.95145 0.697709 -52.5691 -2.12017 0.641248 -114.32 15.5185 1.01765 -6.48933e-008 5.62099e-006 3.84571e-006 -10.1597 3.26381 0.815005 2.99717e-006 5.31099e-006 3 -8.02894 -4.95146 -0.697697 177.462 -3.63928 -0.340419 180 7.01524e-015 178.828 177.864 5.0569 179.708 -7.93365e-007 3.1421e-006 0.0358964 -18.6459 67.8444 19.4058 8.13649 25.2327 -3.48773 -171.659 -2.49704 -1.70154 4.54188e-006 -4.6773e-006 -1.06565 -1.23532 -8.04492 0.535565 3.05901e-007 -6.6868e-007 -0.0192297 17.6906 69.07 -20.3895 -8.13656 25.2337 3.48637 
54.1618 85.7556 11.8834 -2.59835 -4.54512 -1.19578 0.0324842 -0.907564 -0.108949 0.078642 2.18727 -0.210642 0.0812621 3.83234 -0.212111 6.28738 5.66274 1.48678 -4.71996 5.6808 2.96813 61.8305 -4.85417 -3.18716 109.269 16.8082 3.5919 7.43564e-007 -1.12047e-007 -2.83057e-006 13.8024 5.69899 -1.09408 9.49884e-007 -3.55004e-007 -3 8.02889 -4.95145 0.697709 -52.5692 -2.11484 0.637516 -114.322 15.5114 1.01676 -6.48933e-008 5.62099e-006 3.84571e-006 -10.16 3.2706 0.815813 2.99717e-006 5.31099e-006 3 -8.02894 -4.95146 -0.697697 177.48 -3.63229 -0.366075 180 7.01524e-015 178.827 177.9 5.07234 179.705 -7.93365e-007 3.1421e-006 0.0358964 -18.6426 67.8377 19.4003 8.13649 25.2327 -3.48773 -171.66 -2.48832 -1.69816 4.54188e-006 -4.6773e-006 -1.06481 -1.23121 -8.05771 0.536712 3.05901e-007 -6.6868e-007 -0.0192297 17.687 69.0765 -20.3961 -8.13656 25.2337 3.48637 
54.1629 85.7543 11.881 -2.59816 -4.54272 -1.19541 0.0324384 -0.909265 -0.109264 0.0775809 2.18374 -0.21226 0.0802247 3.8288 -0.21371 6.2899 5.67184 1.48234 -4.71752 5.68195 2.96495 61.8348 -4.85228 -3.18631 109.261 16.806 3.59344 7.43564e-007 -1.12047e-007 -2.83057e-006 13.8029 5.70623 -1.09575 9.49884e-007 -3.55004e-007 -3 8.02889 -4.95145 0.697709 -52.5694 -2.10956 0.633827 -114.324 15.5041 1.01573 -6.48933e-008 5.62099e-006 3.84571e-006 -10.1603 3.27721 0.816598 2.99717e-006 5.31099e-006 3 -8.02894 -4.95146 -0.697697 177.499 -3.62495 -0.392275 180 7.01524e-015 178.826 177.937 5.08813 179.702 -7.93365e-007 3.1421e-006 0.0358964 -18.6393 67.8309 19.3947 8.13649 25.2327 -3.48773 -171.66 -2.47928 -1.69474 4.54188e-006 -4.6773e-006 -1.06397 -1.22704 -8.07066 0.537876 3.05901e-007 -6.6868e-007 -0.0192297 17.6834 69.083 -20.4028 -8.13656 25.2337 3.48637 
54.1796 85.7555 11.8922 -2.59799 -4.54019 -1.19504 0.0324011 -0.910999 -0.109588 0.0765262 2.18013 -0.213909 0.0791943 3.8252 -0.215341 6.29235 5.68108 1.47794 -4.71498 5.683 2.96178 61.8391 -4.85019 -3.18534 109.253 16.8038 3.59492 7.43564e-007 -1.12047e-007 -2.83057e-006 13.8034 5.71335 -1.09741 9.49884e-007 -3.55004e-007 -3 8.02889 -4.95145 0.697709 -52.5696 -2.10431 0.630164 -114.327 15.4967 1.01461 -6.48933e-008 5.62099e-006 3.84571e-006 -10.1605 3.2837 0.81737 2.99717e-006 5.31099e-006 3 -8.02894 -4.95146 -0.697697 177.518 -3.61741 -0.418783 180 7.01523e-015 178.825 177.974 5.10407 179.7 -7.93365e-007 3.1421e-006 0.0358964 -18.6359 67.824 19.3891 8.13649 25.2327 -3.48773 -171.66 -2.47005 -1.6913 4.54188e-006 -4.6773e-006 -1.06312 -1.22282 -8.0837 0.53905 3.05901e-007 -6.6868e-007 -0.0192297 17.6798 69.0895 -20.4096 -8.13656 25.2337 3.48637 
54.1776 85.7535 11.8912 -2.59783 -4.53764 -1.19468 0.0323659 -0.91274 -0.109914 0.075473 2.17651 -0.215566 0.0781654 3.82158 -0.21698 6.29479 5.69035 1.47354 -4.7124 5.68402 2.95862 61.8434 -4.84805 -3.18435 109.245 16.8016 3.59639 7.43564e-007 -1.12047e-007 -2.83057e-006 13.8039 5.72044 -1.09907 9.49884e-007 -3.55004e-007 -3 8.02889 -4.95145 0.697709 -52.5699 -2.09906 0.626507 -114.329 15.4893 1.01347 -6.48933e-008 5.62099e-006 3.84571e-006 -10.1608 3.29018 0.818139 2.99717e-006 5.31099e-006 3 -8.02894 -4.95146 -0.697697 177.537 -3.60983 -0.445369 180 7.01523e-015 178.824 178.011 5.12008 179.697 -7.93365e-007 3.1421e-006 0.0358964 -18.6326 67.8171 19.3834 8.13649 25.2327 -3.48773 -171.661 -2.46077 -1.68785 4.54188e-006 -4.6773e-006 -1.06227 -1.21859 -8.09677 0.540226 3.05901e-007 -6.6868e-007 -0.0192297 17.6761 69.0961 -20.4164 -8.13656 25.2337 3.48637 
54.159 85.7507 11.8701 -2.59766 -4.53514 -1.19432 0.0323265 -0.914465 -0.110236 0.0744163 2.17292 -0.217207 0.0771327 3.81799 -0.218603 6.29726 5.69956 1.46912 -4.70988 5.68509 2.95545 61.8477 -4.84601 -3.18341 109.237 16.7994 3.59789 7.43564e-007 -1.12047e-007 -2.83057e-006 13.8045 5.72758 -1.10074 9.49884e-007 -3.55004e-007 -3 8.02889 -4.95145 0.697709 -52.5701 -2.0938 0.622838 -114.331 15.482 1.01237 -6.48933e-008 5.62099e-006 3.84571e-006 -10.161 3.2967 0.818914 2.99717e-006 5.31099e-006 3 -8.02894 -4.95146 -0.697697 177.556 -3.60234 -0.4718 180 7.01523e-015 178.823 178.048 5.13599 179.694 -7.93365e-007 3.1421e-006 0.0358964 -18.6292 67.8102 19.3778 8.13649 25.2327 -3.48773 -171.661 -2.45158 -1.68441 4.54188e-006 -4.6773e-006 -1.06142 -1.21438 -8.10979 0.541398 3.05901e-007 -6.6868e-007 -0.0192297 17.6725 69.1026 -20.4232 -8.13656 25.2337 3.48637 
54.1595 85.7574 11.8757 -2.59746 -4.5328 -1.19394 0.0322763 -0.916151 -0.110547 0.0733511 2.16942 -0.21881 0.076091 3.81449 -0.220187 6.29982 5.70858 1.46468 -4.70751 5.68629 2.95226 61.852 -4.84422 -3.18262 109.229 16.7972 3.59945 7.43564e-007 -1.12047e-007 -2.83057e-006 13.8049 5.73488 -1.10242 9.49884e-007 -3.55004e-007 -3 8.02889 -4.95145 0.697709 -52.5703 -2.0885 0.619137 -114.334 15.4747 1.01137 -6.48933e-008 5.62099e-006 3.84571e-006 -10.1613 3.30336 0.819705 2.99717e-006 5.31099e-006 3 -8.02894 -4.95146 -0.697697 177.575 -3.5951 -0.497842 180 7.01523e-015 178.822 178.084 5.15167 179.692 -7.93365e-007 3.1421e-006 0.0358964 -18.6259 67.8034 19.3723 8.13649 25.2327 -3.48773 -171.661 -2.44263 -1.68101 4.54188e-006 -4.6773e-006 -1.06057 -1.21022 -8.12269 0.542557 3.05901e-007 -6.6868e-007 -0.0192297 17.6689 69.1091 -20.4299 -8.13656 25.2337 3.48637 
54.1655 85.7586 11.8835 -2.59723 -4.53071 -1.19356 0.0322089 -0.917772 -0.110842 0.0722725 2.16605 -0.22035 0.0750348 3.81112 -0.221708 6.30254 5.71731 1.46018 -4.70536 5.68769 2.94904 61.8563 -4.84283 -3.18206 109.221 16.7951 3.60111 7.43564e-007 -1.12047e-007 -2.83057e-006 13.8052 5.74241 -1.10411 9.49884e-007 -3.55004e-007 -3 8.02889 -4.95145 0.697709 -52.5703 -2.08316 0.615386 -114.336 15.4677 1.01055 -6.48933e-008 5.62099e-006 3.84571e-006 -10.1616 3.31023 0.820523 2.99717e-006 5.31099e-006 3 -8.02894 -4.95146 -0.697697 177.593 -3.58824 -0.523264 180 7.01522e-015 178.821 178.12 5.16699 179.689 -7.93365e-007 3.1421e-006 0.0358964 -18.6227 67.7968 19.3669 8.13649 25.2327 -3.48773 -171.661 -2.43406 -1.67764 4.54188e-006 -4.6773e-006 -1.05974 -1.20614 -8.13541 0.543697 3.05901e-007 -6.6868e-007 -0.0192297 17.6654 69.1155 -20.4365 -8.13656 25.2337 3.48637 
54.1663 85.7572 11.8804 -2.59693 -4.52897 -1.19316 0.032118 -0.919306 -0.111114 0.0711756 2.16286 -0.221804 0.0739589 3.80793 -0.223144 6.30546 5.72564 1.4556 -4.70352 5.68937 2.94578 61.8605 -4.84198 -3.18183 109.213 16.793 3.60292 7.43564e-007 -1.12047e-007 -2.83057e-006 13.8054 5.75026 -1.10584 9.49884e-007 -3.55004e-007 -3 8.02889 -4.95145 0.697709 -52.5701 -2.07775 0.611566 -114.339 15.4609 1.00995 -6.48933e-008 5.62099e-006 3.84571e-006 -10.1619 3.31739 0.821377 2.99717e-006 5.31099e-006 3 -8.02894 -4.95146 -0.697697 177.61 -3.58192 -0.547833 180 7.01522e-015 178.82 178.155 5.18182 179.686 -7.93365e-007 3.1421e-006 0.0358964 -18.6195 67.7903 19.3616 8.13649 25.2327 -3.48773 -171.662 -2.426 -1.67435 4.54188e-006 -4.6773e-006 -1.05893 -1.20217 -8.14787 0.54481 3.05901e-007 -6.6868e-007 -0.0192297 17.662 69.1218 -20.443 -8.13656 25.2337 3.48637 
54.1556 85.7556 11.8717 -2.59657 -4.52766 -1.19274 0.031997 -0.920728 -0.111357 0.0700554 2.15992 -0.22315 0.0728579 3.80498 -0.224471 6.30864 5.73347 1.45094 -4.70208 5.69141 2.94246 61.8647 -4.84183 -3.182 109.205 16.7911 3.60491 7.43564e-007 -1.12047e-007 -2.83057e-006 13.8053 5.75853 -1.10759 9.49884e-007 -3.55004e-007 -3 8.02889 -4.95145 0.697709 -52.5696 -2.07226 0.607658 -114.341 15.4544 1.00965 -6.48933e-008 5.62099e-006 3.84571e-006 -10.1622 3.32492 0.822277 2.99717e-006 5.31099e-006 3 -8.02894 -4.95146 -0.697697 177.627 -3.57628 -0.571316 180 7.01522e-015 178.82 178.188 5.19603 179.684 -7.93365e-007 3.1421e-006 0.0358964 -18.6164 67.7841 19.3565 8.13649 25.2327 -3.48773 -171.663 -2.4186 -1.67113 4.54188e-006 -4.6773e-006 -1.05813 -1.19833 -8.16 0.545888 3.05901e-007 -6.6868e-007 -0.0192297 17.6588 69.1281 -20.4492 -8.13656 25.2337 3.48637 
54.1588 85.7526 11.8725 -2.59612 -4.52687 -1.19229 0.0318395 -0.922013 -0.111565 0.068907 2.15725 -0.224363 0.0717267 3.80232 -0.225665 6.31214 5.74068 1.44616 -4.70113 5.69388 2.93909 61.8689 -4.84252 -3.18267 109.196 16.7892 3.60712 7.43564e-007 -1.12047e-007 -2.83057e-006 13.805 5.76729 -1.10939 9.49884e-007 -3.55004e-007 -3 8.02889 -4.95145 0.697709 -52.5688 -2.06666 0.603644 -114.344 15.4482 1.0097 -6.48933e-008 5.62099e-006 3.84571e-006 -10.1626 3.3329 0.823233 2.99717e-006 5.31099e-006 3 -8.02894 -4.95146 -0.697697 177.643 -3.57146 -0.593481 180 7.01522e-015 178.819 178.22 5.20945 179.681 -7.93365e-007 3.1421e-006 0.0358964 -18.6135 67.7782 19.3517 8.13649 25.2327 -3.48773 -171.663 -2.412 -1.66801 4.54188e-006 -4.6773e-006 -1.05736 -1.19467 -8.17174 0.546924 3.05901e-007 -6.6868e-007 -0.0192297 17.6557 69.1342 -20.4552 -8.13656 25.2337 3.48637 
